<svg xmlns="http://www.w3.org/2000/svg" xmlns:svg="http://www.w3.org/2000/svg" id="svg4149" width="22" height="22" version="1.1" viewBox="0 0 22 22"><metadata id="metadata4154"/><g id="layer1" transform="translate(0,-1030.3622)"><path style="opacity:1;fill:#ececec;fill-opacity:1;stroke:none;stroke-width:2;stroke-linecap:butt;stroke-linejoin:round;stroke-miterlimit:4;stroke-dasharray:none;stroke-dashoffset:0;stroke-opacity:1" id="rect4699" d="m 6,1035.3622 c -1.108,0 -2,0.892 -2,2 l 0,7 c 0,1.108 0.892,2 2,2 l 1,0 1,1 3.263672,0 a 4.5,4.5 0 0 1 -0.263672,-1.5 4.5,4.5 0 0 1 0.03125,-0.5 l -2.03125,0 -1,-1 -2,0 0,-7 10,0 0,4.0313 a 4.5,4.5 0 0 1 2,0.7285 l 0,-4.7598 c 0,-1.108 -0.892,-2 -2,-2 l -10,0 z"/><path id="path16215" d="m 15.5,1042.3622 c -1.93299,0 -3.5,1.567 -3.5,3.5 0,1.933 1.56701,3.5 3.5,3.5 1.93299,0 3.5,-1.567 3.5,-3.5 0,-1.933 -1.56701,-3.5 -3.5,-3.5 z m -2.5,2.9688 5,0 0,1.0312 -5,0 0,-1.0312 z" class="error" style="color:#bebebe;display:inline;overflow:visible;visibility:visible;fill:#ef2929;fill-opacity:1;fill-rule:nonzero;stroke:none;stroke-width:1.90939796;marker:none;enable-background:accumulate"/></g></svg>