<svg xmlns="http://www.w3.org/2000/svg" xmlns:svg="http://www.w3.org/2000/svg" id="svg2" width="22" height="22" version="1.0"><metadata id="metadata7"/><g id="layer3" transform="translate(-0.4642613,3.000018)" style="display:inline"><path style="opacity:.45;fill:#ececec;fill-opacity:1;stroke:none" id="path2863" d="M 16.464261,7.9999819 A 5,4 0 0 1 13.377678,11.6955 5,4 0 0 1 7.9287271,10.828409 5,4 0 0 1 6.8448634,6.4692481 5,4 0 0 1 11.464261,3.9999819 l 0,4 z"/><path style="display:inline;opacity:1;fill:#ececec;fill-opacity:1;stroke:none" id="path2892" d="m 11.464261,1.999982 c -3.8659926,0 -6.9999997,2.4101491 -6.9999997,6 0,3.589851 3.1340071,6 6.9999997,6 1.064957,0 2.065093,-0.229965 2.96875,-0.625 l 4.03125,1.625 -1.4375,-3.5625 c 0.903172,-1.094701 1.4375,-1.951935 1.4375,-3.4375 0,-3.5898509 -3.134007,-6 -7,-6 z m 0,2 c 2.761424,0 5,1.7908611 5,4 0,2.209139 -2.238576,4 -5,4 -2.7614234,0 -4.9999997,-1.790861 -4.9999997,-4 0,-2.2091389 2.2385763,-4 4.9999997,-4 z"/></g></svg>